<svg id="semitrailer_cattletruck" viewBox="0 0 200 50" xmlns="http://www.w3.org/2000/svg"><g transform="translate(4, 0)"><path d="M51,49 L48,49 L48,50 L51,50 L51,49 Z M50,44 L49,44 L49,49 L50,49 L50,44 Z M51,37 L48,37 L48,44 L51,44 L51,37 Z" fill="#4e4e4e" fill-rule="nonzero"></path></g><g><g transform="translate(0, 0)"><path d="M0,0 L169,0 L169,45 L149,45 L145,39 L115,39 L112,45 L52,45 L45.5,35 L0,35 L0,0 Z M6,4 L6,7 L11,7 L11,4 L6,4 Z M14,4 L14,7 L19,7 L19,4 L14,4 Z M22,4 L22,7 L27,7 L27,4 L22,4 Z M30,4 L30,7 L35,7 L35,4 L30,4 Z M38,4 L38,7 L43,7 L43,4 L38,4 Z M46,4 L46,7 L51,7 L51,4 L46,4 Z M54,4 L54,7 L59,7 L59,4 L54,4 Z M62,4 L62,7 L67,7 L67,4 L62,4 Z M70,4 L70,7 L75,7 L75,4 L70,4 Z M78,4 L78,7 L83,7 L83,4 L78,4 Z M86,4 L86,7 L91,7 L91,4 L86,4 Z M94,4 L94,7 L99,7 L99,4 L94,4 Z M102,4 L102,7 L107,7 L107,4 L102,4 Z M110,4 L110,7 L115,7 L115,4 L110,4 Z M118,4 L118,7 L123,7 L123,4 L118,4 Z M126,4 L126,7 L131,7 L131,4 L126,4 Z M134,4 L134,7 L139,7 L139,4 L134,4 Z M142,4 L142,7 L147,7 L147,4 L142,4 Z M150,4 L150,7 L155,7 L155,4 L150,4 Z M158,4 L158,7 L163,7 L163,4 L158,4 Z M6,10 L6,16 L11,16 L11,10 L6,10 Z M14,10 L14,16 L19,16 L19,10 L14,10 Z M22,10 L22,16 L27,16 L27,10 L22,10 Z M30,10 L30,16 L35,16 L35,10 L30,10 Z M38,10 L38,16 L43,16 L43,10 L38,10 Z M46,10 L46,16 L51,16 L51,10 L46,10 Z M54,10 L54,16 L59,16 L59,10 L54,10 Z M62,10 L62,16 L67,16 L67,10 L62,10 Z M70,10 L70,16 L75,16 L75,10 L70,10 Z M78,10 L78,16 L83,16 L83,10 L78,10 Z M86,10 L86,16 L91,16 L91,10 L86,10 Z M94,10 L94,16 L99,16 L99,10 L94,10 Z M102,10 L102,16 L107,16 L107,10 L102,10 Z M110,10 L110,16 L115,16 L115,10 L110,10 Z M118,10 L118,16 L123,16 L123,10 L118,10 Z M126,10 L126,16 L131,16 L131,10 L126,10 Z M134,10 L134,16 L139,16 L139,10 L134,10 Z M142,10 L142,16 L147,16 L147,10 L142,10 Z M150,10 L150,16 L155,16 L155,10 L150,10 Z M158,10 L158,16 L163,16 L163,10 L158,10 Z" fill="#4e4e4e"></path></g></g><g transform="translate(114, 40)"><g><path d="M0.5,5 L2.5,5 C2.5,7 3.66685551,9 5.80490539,9 C7.94295528,9 9.5,7 9.5,5 L11,5 C11,5 10.5,0.5 5.80490539,0.495354174 C2,0.495354174 0.5,5 0.5,5 Z" fill="#ffffff"></path><path d="M5.80490539,0 C2.7632813,0 0.268269443,2.31829882 0,5.27485511 L1.06459494,5.27485511 C1.32862297,2.9016978 3.34912662,1.05497102 5.80490539,1.05497102 C8.26068417,1.05497102 10.2811878,2.9016978 10.5452158,5.27485511 L11.6098108,5.27485511 C11.3415413,2.31829882 8.84652949,0 5.80490539,0 L5.80490539,0 Z" fill="#4e4e4e"></path><path d="M5.80490539,4.85445912 C5.23574651,4.85445912 4.77382046,5.31509129 4.77382046,5.88265592 C4.77382046,6.45022056 5.23574651,6.91085272 5.80490539,6.91085272 C6.37406428,6.91085272 6.83599033,6.45022056 6.83599033,5.88265592 C6.83599033,5.31509129 6.37406428,4.85445912 5.80490539,4.85445912 L5.80490539,4.85445912 Z M5.80490539,1.76986871 C3.52723878,1.76986871 1.68056566,3.61136919 1.68056566,5.88265592 C1.68056566,8.15394266 3.52723878,9.99544313 5.80490539,9.99544313 C8.08257201,9.99544313 9.92924513,8.15394266 9.92924513,5.88265592 C9.92924513,3.61136919 8.08257201,1.76986871 5.80490539,1.76986871 L5.80490539,1.76986871 Z M5.80490539,8.45314793 C4.3809771,8.45314793 3.22719306,7.30259571 3.22719306,5.88265592 C3.22719306,4.46271614 4.3809771,3.31216392 5.80490539,3.31216392 C7.22883369,3.31216392 8.38261773,4.46271614 8.38261773,5.88265592 C8.38261773,7.30259571 7.22883369,8.45314793 5.80490539,8.45314793 L5.80490539,8.45314793 Z" fill="#4e4e4e"></path></g></g><g transform="translate(124.5, 40)"><g><path d="M0.5,5 L2.5,5 C2.5,7 3.66685551,9 5.80490539,9 C7.94295528,9 9.5,7 9.5,5 L11,5 C11,5 10.5,0.5 5.80490539,0.495354174 C2,0.495354174 0.5,5 0.5,5 Z" fill="#ffffff"></path><path d="M5.80490539,0 C2.7632813,0 0.268269443,2.31829882 0,5.27485511 L1.06459494,5.27485511 C1.32862297,2.9016978 3.34912662,1.05497102 5.80490539,1.05497102 C8.26068417,1.05497102 10.2811878,2.9016978 10.5452158,5.27485511 L11.6098108,5.27485511 C11.3415413,2.31829882 8.84652949,0 5.80490539,0 L5.80490539,0 Z" fill="#4e4e4e"></path><path d="M5.80490539,4.85445912 C5.23574651,4.85445912 4.77382046,5.31509129 4.77382046,5.88265592 C4.77382046,6.45022056 5.23574651,6.91085272 5.80490539,6.91085272 C6.37406428,6.91085272 6.83599033,6.45022056 6.83599033,5.88265592 C6.83599033,5.31509129 6.37406428,4.85445912 5.80490539,4.85445912 L5.80490539,4.85445912 Z M5.80490539,1.76986871 C3.52723878,1.76986871 1.68056566,3.61136919 1.68056566,5.88265592 C1.68056566,8.15394266 3.52723878,9.99544313 5.80490539,9.99544313 C8.08257201,9.99544313 9.92924513,8.15394266 9.92924513,5.88265592 C9.92924513,3.61136919 8.08257201,1.76986871 5.80490539,1.76986871 L5.80490539,1.76986871 Z M5.80490539,8.45314793 C4.3809771,8.45314793 3.22719306,7.30259571 3.22719306,5.88265592 C3.22719306,4.46271614 4.3809771,3.31216392 5.80490539,3.31216392 C7.22883369,3.31216392 8.38261773,4.46271614 8.38261773,5.88265592 C8.38261773,7.30259571 7.22883369,8.45314793 5.80490539,8.45314793 L5.80490539,8.45314793 Z" fill="#4e4e4e"></path></g></g><g transform="translate(135, 40)"><g><path d="M0.5,5 L2.5,5 C2.5,7 3.66685551,9 5.80490539,9 C7.94295528,9 9.5,7 9.5,5 L11,5 C11,5 10.5,0.5 5.80490539,0.495354174 C2,0.495354174 0.5,5 0.5,5 Z" fill="#ffffff"></path><path d="M5.80490539,0 C2.7632813,0 0.268269443,2.31829882 0,5.27485511 L1.06459494,5.27485511 C1.32862297,2.9016978 3.34912662,1.05497102 5.80490539,1.05497102 C8.26068417,1.05497102 10.2811878,2.9016978 10.5452158,5.27485511 L11.6098108,5.27485511 C11.3415413,2.31829882 8.84652949,0 5.80490539,0 L5.80490539,0 Z" fill="#4e4e4e"></path><path d="M5.80490539,4.85445912 C5.23574651,4.85445912 4.77382046,5.31509129 4.77382046,5.88265592 C4.77382046,6.45022056 5.23574651,6.91085272 5.80490539,6.91085272 C6.37406428,6.91085272 6.83599033,6.45022056 6.83599033,5.88265592 C6.83599033,5.31509129 6.37406428,4.85445912 5.80490539,4.85445912 L5.80490539,4.85445912 Z M5.80490539,1.76986871 C3.52723878,1.76986871 1.68056566,3.61136919 1.68056566,5.88265592 C1.68056566,8.15394266 3.52723878,9.99544313 5.80490539,9.99544313 C8.08257201,9.99544313 9.92924513,8.15394266 9.92924513,5.88265592 C9.92924513,3.61136919 8.08257201,1.76986871 5.80490539,1.76986871 L5.80490539,1.76986871 Z M5.80490539,8.45314793 C4.3809771,8.45314793 3.22719306,7.30259571 3.22719306,5.88265592 C3.22719306,4.46271614 4.3809771,3.31216392 5.80490539,3.31216392 C7.22883369,3.31216392 8.38261773,4.46271614 8.38261773,5.88265592 C8.38261773,7.30259571 7.22883369,8.45314793 5.80490539,8.45314793 L5.80490539,8.45314793 Z" fill="#4e4e4e"></path></g></g></svg>