<svg id="truckupto7.5t-timbercarrier" xmlns="http://www.w3.org/2000/svg" viewBox="0 0 200 50"><g transform="translate(0, 6)"><path d="M10,9 C3.35787394,9 1.09844817,21.0565637 1,24 C1.09844817,30.7795649 1,33 1,33 L7,33 C7,33 8,31 11,31 L22,31 L22,9 L10,9 Z M18,21 L4,22 C4,22 5.86778026,12 9,12 L18,12 L18,21 Z" fill="#2980b9"></path><path d="M22,34 L104,34 L104,36 L24,36 L24,39 L20,39 L18,40 L1,40 L0,38 C0,38 1,37.7999992 1,37 C1,36.2000008 0,36 0,36 L0,34 L8,34 C8,34 8.69152832,32 12,32 L22,32 L22,34 Z M24,37 L71,37 L71,39 L24,39 L24,37 Z" fill="#4e4e4e"></path><path d="M31.707217,0 L31.707217,32 L29.707217,32 L29.707217,0 L31.707217,0 Z M63.707217,0 L63.707217,32 L61.707217,32 L61.707217,0 L63.707217,0 Z M95.707217,0 L95.707217,32 L93.707217,32 L93.707217,0 L95.707217,0 Z M32.707217,32 L32.707217,34 L28.707217,34 L28.707217,32 L32.707217,32 Z M64.707217,32 L64.707217,34 L60.707217,34 L60.707217,32 L64.707217,32 Z M96.707217,32 L96.707217,34 L92.707217,34 L92.707217,32 L96.707217,32 Z" fill="#4e4e4e" fill-rule="nonzero"></path></g></svg>